<svg width="19" height="20" viewBox="0 0 19 20" fill="none" xmlns="http://www.w3.org/2000/svg">
<path d="M2.63417 19.2683C4.08898 19.2683 5.26833 18.089 5.26833 16.6342C5.26833 15.1794 4.08898 14 2.63417 14C1.17936 14 0 15.1794 0 16.6342C0 18.089 1.17936 19.2683 2.63417 19.2683Z" fill="#A9A9A9"/>
<path d="M0 0V3.41958C8.49458 3.41958 15.3821 10.3071 15.3821 18.8017H18.8017C18.8017 8.42208 10.3796 0 0 0ZM0 6.83917V10.2587C4.7125 10.2587 8.54292 14.0892 8.54292 18.8017H11.9625C11.9625 12.1921 6.60958 6.83917 0 6.83917Z" fill="#A9A9A9"/>
</svg>
