<svg width="21" height="22" viewBox="0 0 21 22" fill="none" xmlns="http://www.w3.org/2000/svg">
<path d="M19.8333 19.1667V9.25001C19.8333 9.06889 19.7912 8.89026 19.7102 8.72826C19.6292 8.56626 19.5116 8.42535 19.3667 8.31668L11.2 2.19168C10.998 2.04022 10.7524 1.95834 10.5 1.95834C10.2476 1.95834 10.0019 2.04022 9.79999 2.19168L1.63332 8.31668C1.48843 8.42535 1.37082 8.56626 1.28982 8.72826C1.20883 8.89026 1.16666 9.06889 1.16666 9.25001V19.1667C1.16666 19.4761 1.28957 19.7728 1.50837 19.9916C1.72716 20.2104 2.0239 20.3333 2.33332 20.3333H6.99999C7.30941 20.3333 7.60615 20.2104 7.82495 19.9916C8.04374 19.7728 8.16666 19.4761 8.16666 19.1667V15.6667C8.16666 15.3573 8.28957 15.0605 8.50837 14.8417C8.72716 14.6229 9.0239 14.5 9.33332 14.5H11.6667C11.9761 14.5 12.2728 14.6229 12.4916 14.8417C12.7104 15.0605 12.8333 15.3573 12.8333 15.6667V19.1667C12.8333 19.4761 12.9562 19.7728 13.175 19.9916C13.3938 20.2104 13.6906 20.3333 14 20.3333H18.6667C18.9761 20.3333 19.2728 20.2104 19.4916 19.9916C19.7104 19.7728 19.8333 19.4761 19.8333 19.1667Z" stroke="#A9A9A9" stroke-width="2" stroke-linecap="round" stroke-linejoin="round"/>
</svg>
